<?xml version="1.0" encoding="utf-8"?>
<!-- Generator: Adobe Illustrator 21.1.0, SVG Export Plug-In . SVG Version: 6.00 Build 0)  -->
<svg version="1.1" xmlns="http://www.w3.org/2000/svg" xmlns:xlink="http://www.w3.org/1999/xlink" x="0px" y="0px"
	 viewBox="0 0 582 241" style="enable-background:new 0 0 582 241;" xml:space="preserve">
<style type="text/css">
	.st0{display:none;}
	.st1{display:inline;fill:#CC2F2F;}
	.st2{display:inline;fill:#FFFFFF;}
	.st3{display:inline;opacity:0.2;fill:#02B2F8;enable-background:new    ;}
	.st4{display:inline;opacity:0.2;fill:#49DDFF;enable-background:new    ;}
	.st5{display:inline;opacity:0.2;fill:#0080CF;enable-background:new    ;}
	.st6{fill:#CAE0E5;}
	.st7{opacity:0.2;fill:#02B2F8;enable-background:new    ;}
	.st8{opacity:0.2;fill:#49DDFF;enable-background:new    ;}
	.st9{opacity:0.2;fill:#0080CF;enable-background:new    ;}
	.st10{display:inline;}
	.st11{fill:none;stroke:#495C8E;stroke-miterlimit:10;}
	.st12{fill:none;stroke:#495C8E;stroke-miterlimit:10;stroke-dasharray:5.1658,5.1658;}
	.st13{fill:none;stroke:#495C8E;stroke-miterlimit:10;stroke-dasharray:4.6494,4.6494;}
</style>
<g id="圖層_2" class="st0">
	<rect x="-22" y="-22.1" class="st1" width="617" height="380"/>
</g>
<g id="Layer_1" class="st0">
	<path class="st2" d="M434.4,87.7c-1.5,0-2.9,0.2-4.2,0.6c-3.6-6.2-10.4-10.4-18.1-10.4c-0.4,0-0.7,0-1.1,0.1
		c-5.8-10.6-17-17.9-29.9-17.9c-12.5,0-23.4,6.7-29.3,16.7c-0.3,0-0.6,0-0.9,0c-13.2,0-23.9,10.7-23.9,23.9s10.7,23.9,23.9,23.9
		c3.8,0,7.5-0.9,10.7-2.5c5.5,3.9,12.3,6.2,19.6,6.2c9.3,0,17.7-3.7,23.8-9.7c2.3,0.8,4.7,1.3,7.3,1.3c5.7,0,10.9-2.3,14.7-6
		c2.2,1.4,4.8,2.2,7.6,2.2c7.8,0,14.2-6.3,14.2-14.2S442.2,87.7,434.4,87.7z"/>
	<path class="st3" d="M242.6,196.5c-16.4-9.7-36.7-9.9-53.3-0.6l-40,22.5l-48,23.3L0,285.5L0.4,329h35.3h448.8l32.5-1.4l-151.3-69.7
		L242.6,196.5z"/>
	<path class="st4" d="M97,227.7c-11.3-6.7-25.3-6.8-36.7-0.4L12,254.5l-11.6,5.6v68.7h303.8l-75.8-34.9L97,227.7z"/>
	<path class="st5" d="M514.5,228.9c-14.1-7.9-31.3-7.7-45.2,0.5l-127.2,63.7l-77.5,35.8H582V264L514.5,228.9z"/>
	<path class="st2" d="M489.2,136c-0.4,0-0.8,0-1.2,0.1c-1.2-4.8-5.5-8.3-10.6-8.3c-3.9,0-7.3,2.1-9.2,5.1c-0.7-0.2-1.5-0.3-2.3-0.3
		c-4.2,0-7.6,3.4-7.6,7.6c0,4.2,3.4,7.6,7.6,7.6c1.5,0,2.9-0.4,4.1-1.2c1.9,1.8,4.6,2.9,7.4,2.9c3,0,5.8-1.2,7.7-3.2
		c1.1,1,2.5,1.6,4.1,1.6c3.3,0,6-2.7,6-6C495.2,138.7,492.5,136,489.2,136z"/>
	<path class="st2" d="M551.1,95.2c-0.6,0-1.1,0.1-1.6,0.2c-1.5-6.3-7.2-10.9-13.9-10.9c-5.1,0-9.6,2.7-12.2,6.8
		c-0.9-0.3-1.9-0.4-3-0.4c-5.5,0-10,4.5-10,10s4.5,10,10,10c2,0,3.8-0.6,5.3-1.6c2.6,2.4,6,3.9,9.8,3.9c4,0,7.6-1.6,10.2-4.3
		c1.4,1.3,3.3,2.1,5.3,2.1c4.4,0,7.9-3.5,7.9-7.9C559,98.7,555.5,95.2,551.1,95.2z"/>
</g>
<g id="clear">
	<rect x="-4.1" y="-4.8" class="st6" width="590.2" height="268.4"/>
	<path class="st7" d="M295.9,170.7c-16.4-9.7-36.7-9.9-53.3-0.6l-40,22.5l-48,23.3L53.3,259.7l0.4,43.5H89h448.8l32.5-1.4L419,232.1
		L295.9,170.7z"/>
	<path class="st8" d="M92.5,145.6c-11.3-6.7-25.3-6.8-36.7-0.4L7.5,172.4L-4.1,178v68.7h303.8l-75.8-34.9L92.5,145.6z"/>
	<path class="st9" d="M518.6,160.2c-14.1-7.9-31.3-7.7-45.2,0.5l-127.2,63.7l-77.5,35.8h317.4v-64.9L518.6,160.2z"/>
</g>
<g id="圖層_4" class="st0">
	<g class="st10">
		<g>
			<line class="st11" x1="328.7" y1="84.2" x2="327.4" y2="86.3"/>
			<line class="st12" x1="324.6" y1="90.7" x2="288" y2="150"/>
			<line class="st11" x1="286.6" y1="152.2" x2="285.3" y2="154.4"/>
		</g>
	</g>
	<g class="st10">
		<g>
			<line class="st11" x1="358.2" y1="74.5" x2="356.9" y2="76.7"/>
			<line class="st12" x1="354.1" y1="81.1" x2="317.5" y2="140.4"/>
			<line class="st11" x1="316.1" y1="142.6" x2="314.8" y2="144.7"/>
		</g>
	</g>
	<g class="st10">
		<g>
			<line class="st11" x1="375.5" y1="69.8" x2="374.2" y2="72"/>
			<line class="st12" x1="371.5" y1="76.3" x2="334.8" y2="135.7"/>
			<line class="st11" x1="333.5" y1="137.9" x2="332.2" y2="140"/>
		</g>
	</g>
	<g class="st10">
		<g>
			<line class="st11" x1="392.9" y1="77.1" x2="391.6" y2="79.2"/>
			<line class="st12" x1="388.9" y1="83.6" x2="352.2" y2="142.9"/>
			<line class="st11" x1="350.9" y1="145.1" x2="349.6" y2="147.2"/>
		</g>
	</g>
	<g class="st10">
		<g>
			<line class="st11" x1="414.6" y1="69.8" x2="413.2" y2="72"/>
			<line class="st12" x1="410.5" y1="76.3" x2="373.9" y2="135.7"/>
			<line class="st11" x1="372.5" y1="137.9" x2="371.2" y2="140"/>
		</g>
	</g>
	<g class="st10">
		<g>
			<line class="st11" x1="454.9" y1="112.1" x2="453.6" y2="114.3"/>
			<line class="st13" x1="451.1" y1="118.2" x2="437.7" y2="140"/>
			<line class="st11" x1="436.5" y1="142" x2="435.2" y2="144.1"/>
		</g>
	</g>
	<g class="st10">
		<g>
			<line class="st11" x1="462.5" y1="112.1" x2="461.1" y2="114.3"/>
			<line class="st13" x1="458.7" y1="118.2" x2="445.3" y2="140"/>
			<line class="st11" x1="444" y1="142" x2="442.7" y2="144.1"/>
		</g>
	</g>
	<g class="st10">
		<g>
			<line class="st11" x1="471" y1="112.1" x2="469.7" y2="114.3"/>
			<line class="st13" x1="467.3" y1="118.2" x2="453.9" y2="140"/>
			<line class="st11" x1="452.6" y1="142" x2="451.3" y2="144.1"/>
		</g>
	</g>
	<g class="st10">
		<g>
			<line class="st11" x1="514.6" y1="73" x2="513.2" y2="75.1"/>
			<line class="st13" x1="510.8" y1="79.1" x2="497.4" y2="100.8"/>
			<line class="st11" x1="496.1" y1="102.8" x2="494.8" y2="104.9"/>
		</g>
	</g>
	<g class="st10">
		<g>
			<line class="st11" x1="522.1" y1="73" x2="520.8" y2="75.1"/>
			<line class="st13" x1="518.4" y1="79.1" x2="504.9" y2="100.8"/>
			<line class="st11" x1="503.7" y1="102.8" x2="502.4" y2="104.9"/>
		</g>
	</g>
	<g class="st10">
		<g>
			<line class="st11" x1="530.7" y1="73" x2="529.4" y2="75.1"/>
			<line class="st13" x1="526.9" y1="79.1" x2="513.5" y2="100.8"/>
			<line class="st11" x1="512.3" y1="102.8" x2="511" y2="104.9"/>
		</g>
	</g>
	<path class="st2" d="M418.8,58.7c-1.5,0-2.9,0.2-4.2,0.6c-3.6-6.2-10.4-10.4-18.1-10.4c-0.4,0-0.7,0-1.1,0.1
		c-5.8-10.6-17-17.9-29.9-17.9c-12.5,0-23.4,6.7-29.3,16.7c-0.3,0-0.6,0-0.9,0c-13.2,0-23.9,10.7-23.9,23.9s10.7,23.9,23.9,23.9
		c3.8,0,7.5-0.9,10.7-2.5c5.5,3.9,12.3,6.2,19.6,6.2c9.3,0,17.7-3.7,23.8-9.7c2.3,0.8,4.7,1.3,7.3,1.3c5.7,0,10.9-2.3,14.7-6
		c2.2,1.4,4.8,2.2,7.6,2.2c7.8,0,14.2-6.3,14.2-14.2S426.6,58.7,418.8,58.7z"/>
	<path class="st2" d="M473.6,107c-0.4,0-0.8,0-1.2,0.1c-1.2-4.8-5.5-8.3-10.6-8.3c-3.9,0-7.3,2.1-9.2,5.1c-0.7-0.2-1.5-0.3-2.3-0.3
		c-4.2,0-7.6,3.4-7.6,7.6c0,4.2,3.4,7.6,7.6,7.6c1.5,0,2.9-0.4,4.1-1.2c1.9,1.8,4.6,2.9,7.4,2.9c3,0,5.8-1.2,7.7-3.2
		c1.1,1,2.5,1.6,4.1,1.6c3.3,0,6-2.7,6-6C479.6,109.7,476.9,107,473.6,107z"/>
	<path class="st2" d="M535.5,66.2c-0.6,0-1.1,0.1-1.6,0.2c-1.5-6.3-7.2-10.9-13.9-10.9c-5.1,0-9.6,2.7-12.2,6.8
		c-0.9-0.3-1.9-0.4-3-0.4c-5.5,0-10,4.5-10,10s4.5,10,10,10c2,0,3.8-0.6,5.3-1.6c2.6,2.4,6,3.9,9.8,3.9c4,0,7.6-1.6,10.2-4.3
		c1.4,1.3,3.3,2.1,5.3,2.1c4.4,0,7.9-3.5,7.9-7.9C543.4,69.7,539.9,66.2,535.5,66.2z"/>
</g>
</svg>
